<svg width="40" height="40" viewBox="0 0 40 40" fill="none" xmlns="http://www.w3.org/2000/svg">
<path d="M16.4087 11.0933H18.8281V13.5127C18.8281 14.16 19.3527 14.6846 20 14.6846C20.6473 14.6846 21.1719 14.16 21.1719 13.5127V11.0933H23.5913C24.2386 11.0933 24.7632 10.5687 24.7632 9.92139C24.7632 9.27411 24.2386 8.74951 23.5913 8.74951H21.1719V6.33008C21.1719 5.6828 20.6473 5.1582 20 5.1582C19.3527 5.1582 18.8281 5.6828 18.8281 6.33008V8.74951H16.4087C15.7614 8.74951 15.2368 9.27411 15.2368 9.92139C15.2368 10.5687 15.7614 11.0933 16.4087 11.0933Z" fill="#F63F45"/>
<path fill-rule="evenodd" clip-rule="evenodd" d="M28.1165 5.23438H31.7969C36.3202 5.23438 40 8.91418 40 13.4375C40 14.0848 39.4754 14.6094 38.8281 14.6094H36.4062V38.3594C36.4062 39.0067 35.8817 39.5312 35.2344 39.5312H4.76562C4.11835 39.5312 3.59375 39.0067 3.59375 38.3594V14.6094H1.17188C0.524597 14.6094 0 14.0848 0 13.4375C0 8.91418 3.67981 5.23438 8.20312 5.23438H11.8835C13.5068 2.43439 16.5372 0.546875 20 0.546875C23.4628 0.546875 26.4932 2.43439 28.1165 5.23438ZM27.0312 9.92188C27.0312 6.04492 23.877 2.89062 20 2.89062C16.123 2.89062 12.9688 6.04492 12.9688 9.92188C12.9688 13.7988 16.123 16.9531 20 16.9531C22.778 16.9531 25.1843 15.3339 26.3257 12.9895C26.3416 12.9517 26.3589 12.9144 26.3785 12.8784C26.7972 11.9791 27.0312 10.9775 27.0312 9.92188ZM10.9216 7.57812H8.20312C5.37354 7.57812 3.00598 9.59442 2.46155 12.2656H10.9216C10.7281 11.5161 10.625 10.7309 10.625 9.92188C10.625 9.11285 10.7281 8.32764 10.9216 7.57812ZM28.2031 37.1875H34.0625V14.6094H28.1165C26.4932 17.4094 23.4628 19.2969 20 19.2969C16.5372 19.2969 13.5068 17.4094 11.8835 14.6094H5.9375V37.1875H11.7969V24.2969C11.7969 23.6496 12.3215 23.125 12.9688 23.125H27.0312C27.6785 23.125 28.2031 23.6496 28.2031 24.2969V37.1875ZM29.375 9.92188C29.375 10.7309 29.2722 11.5161 29.0784 12.2656H37.5385C36.994 9.59442 34.6265 7.57812 31.7969 7.57812H29.0784C29.2722 8.32764 29.375 9.11285 29.375 9.92188ZM26 37V25H14V37H26Z" fill="#F63F45"/>
</svg>
