<svg width="40" height="40" viewBox="0 0 40 40" fill="none" xmlns="http://www.w3.org/2000/svg">
<g clip-path="url(#clip0)">
<path d="M39.5811 11.0028C38.2258 5.6872 33.7331 1.97461 28.6557 1.97461C25.3161 1.97461 22.2947 3.57946 19.997 6.53417C17.7005 3.57913 14.6805 1.97461 11.3417 1.97461C6.26622 1.97461 1.77475 5.68704 0.419282 11.0025C-0.30605 13.8468 -0.447017 18.3913 3.0005 23.8892C6.18541 28.9684 11.7041 33.6732 19.4028 37.873C19.5879 37.9738 19.792 38.0244 19.9965 38.0244C20.2007 38.0244 20.405 37.9738 20.5899 37.873C28.2909 33.673 33.8111 28.9682 36.9974 23.8892C40.4465 18.3913 40.3061 13.8468 39.5811 11.0028ZM19.9966 35.3696C1.13238 24.8575 2.07338 14.5479 2.82135 11.6151C3.89671 7.39848 7.40041 4.45353 11.3419 4.45353C14.322 4.45353 17.0193 6.19736 18.9365 9.36344C19.1611 9.73429 19.563 9.96086 19.9965 9.96086H19.9966C20.4301 9.96086 20.832 9.73445 21.0566 9.36377C22.9755 6.19736 25.6743 4.45353 28.6557 4.45353C32.5989 4.45353 36.1038 7.39848 37.179 11.6151C37.9266 14.5477 38.8663 24.8567 19.9966 35.3696Z" fill="#F63F45"/>
<path d="M28.1479 19.8731H24.3181L22.8934 14.6268C22.793 14.2569 22.4557 14 22.0708 14C22.0707 14 22.0704 14 22.0702 14C21.6849 14.0002 21.3478 14.2577 21.2478 14.6279L19.2885 21.884L17.3292 14.6279C17.2301 14.2609 16.8978 14.0044 16.5159 14C16.5127 14 16.5094 14 16.5061 14C16.1283 14 15.795 14.2478 15.6884 14.6094L14.6967 17.9753H10.8522C10.3816 17.9753 10 18.3549 10 18.8233C10 19.2917 10.3816 19.6712 10.8522 19.6712H15.3349C15.7133 19.6712 16.0462 19.4231 16.1527 19.0618L16.4704 17.9835L18.4655 25.3721C18.5655 25.7424 18.9031 26 19.2885 26C19.674 26 20.0115 25.7426 20.1115 25.3721L22.073 18.1075L22.8429 20.9424C22.9433 21.3122 23.2804 21.5692 23.6655 21.5692H28.1478C28.6184 21.5692 29 21.1896 29 20.7212C29.0001 20.2528 28.6187 19.8731 28.1479 19.8731Z" fill="#F63F45"/>
</g>
<defs>
<clipPath id="clip0">
<rect width="40" height="40" fill="white"/>
</clipPath>
</defs>
</svg>
