<svg width="40" height="40" viewBox="0 0 40 40" fill="none" xmlns="http://www.w3.org/2000/svg">
<path d="M34.9317 20.2526C34.9317 17.359 32.5772 15.0047 29.6832 15.0047C26.7892 15.0047 24.4348 17.3588 24.4348 20.2526C24.4348 22.6909 26.106 24.7457 28.3629 25.3328V31.2409C28.3629 34.6146 25.6182 37.3593 22.2442 37.3593C18.871 37.3593 16.1267 34.6146 16.1267 31.2409V19.384C20.8732 18.7372 24.5436 14.6597 24.5436 9.73813V1.32034C24.5436 0.591161 23.9524 0 23.2232 0H19.0154C18.2862 0 17.695 0.591161 17.695 1.32034C17.695 2.04952 18.2862 2.64068 19.0154 2.64068H21.9029V9.73813C21.9029 13.6514 18.7195 16.8351 14.8063 16.8351C10.8928 16.8351 7.70887 13.6514 7.70887 9.73813V2.64068H10.5974C11.3266 2.64068 11.9178 2.04952 11.9178 1.32034C11.9178 0.591161 11.3266 0 10.5976 0H6.3887C5.65934 0 5.06836 0.591161 5.06836 1.32034V9.73813C5.06836 14.6595 8.73926 18.7372 13.4862 19.384V31.2409C13.4862 36.0707 17.415 40 22.2444 40C27.0744 40 31.0037 36.0707 31.0037 31.2409V25.3328C33.2606 24.7457 34.9317 22.6909 34.9317 20.2526ZM29.6834 22.8604C28.2456 22.8604 27.0756 21.6906 27.0756 20.2526C27.0756 18.815 28.2455 17.6454 29.6834 17.6454C31.1213 17.6454 32.2912 18.815 32.2912 20.2526C32.291 21.6906 31.1212 22.8604 29.6834 22.8604Z" fill="#F63F45"/>
</svg>
